Coordinates
version=1
nRows=13
nColumns=40
inDegrees=yes

Units are S.I. units (second, meters, Newtons, ...)
Angles are in degrees.

endheader
time	pelvis_tilt	pelvis_list	pelvis_rotation	pelvis_tx	pelvis_ty	pelvis_tz	hip_flexion_r	hip_adduction_r	hip_rotation_r	knee_angle_r	knee_angle_r_beta	ankle_angle_r	subtalar_angle_r	mtp_angle_r	hip_flexion_l	hip_adduction_l	hip_rotation_l	knee_angle_l	knee_angle_l_beta	ankle_angle_l	subtalar_angle_l	mtp_angle_l	lumbar_extension	lumbar_bending	lumbar_rotation	arm_flex_r	arm_add_r	arm_rot_r	elbow_flex_r	pro_sup_r	wrist_flex_r	wrist_dev_r	arm_flex_l	arm_add_l	arm_rot_l	elbow_flex_l	pro_sup_l	wrist_flex_l	wrist_dev_l
     18.91628571	     -3.19727293	     -4.53881461	     -1.55580852	      1.11166670	      0.93709761	      0.39177617	     34.92489572	     -5.64118840	     -6.63340689	     59.28574102	     59.28574102	      1.73021861	    -13.93538313	      1.62720357	      8.04430743	     -3.51527723	    -11.69341488	     16.46043062	     16.46043062	     13.44515204	     -9.43244112	     -2.14305063	    -10.09777286	      7.61028489	      1.91927789	     -2.16258324	    -11.27467324	    -11.18859646	     22.60861586	     47.14658219	      0.00000000	      0.00000000	     20.85278627	    -14.14735133	     -1.86633382	     53.46472662	     47.05240917	      0.00000000	      0.00000000
     18.92757143	     -3.21389633	     -4.57521267	     -1.71935372	      1.11046195	      0.93678122	      0.39177466	     35.29891884	     -5.40741455	     -7.08119794	     56.31089171	     56.31089171	      1.54327582	    -13.19042272	      1.86195854	      7.21686403	     -3.50014146	    -11.90581452	     15.96783625	     15.96783625	     13.77360956	     -9.12849467	     -2.30761800	    -10.22867464	      7.68151030	      1.94037854	     -3.92918922	    -11.33422539	    -11.31282787	     21.66457129	     47.18435889	      0.00000000	      0.00000000	     22.42951302	    -14.54532413	     -2.17879840	     54.86397904	     47.10744354	      0.00000000	      0.00000000
     18.93885714	     -3.25199121	     -4.51713082	     -1.91151092	      1.10939746	      0.93624413	      0.39189031	     35.52410124	     -5.22962057	     -7.52789200	     52.99634772	     52.99634772	      1.01655638	    -12.59867263	      1.12639714	      6.38676851	     -3.43602288	    -12.46919318	     15.45480945	     15.45480945	     13.98792541	     -8.40203844	     -3.08666571	    -10.36092227	      7.60074312	      1.73470930	     -5.43590219	    -11.29107131	    -12.05121891	     20.61166609	     47.30304537	      0.00000000	      0.00000000	     23.27047284	    -15.29176566	     -2.59175630	     57.95738495	     47.18042938	      0.00000000	      0.00000000
     18.95014286	     -3.48768939	     -4.28470899	     -2.07631805	      1.10830953	      0.93523014	      0.39196825	     35.90531911	     -5.18270807	     -7.89509227	     49.56664803	     49.56664803	      0.86618384	    -11.90423016	      1.55418029	      5.91576396	     -3.14737553	    -12.68114530	     15.18668497	     15.18668497	     14.29831409	     -8.27255216	     -3.23535923	    -10.13746603	      7.35163124	      1.29441005	     -6.95675719	    -11.34005557	    -12.11908914	     20.05125660	     47.31983080	      0.00000000	      0.00000000	     24.66759056	    -16.07823482	     -2.92540893	     58.75103737	     47.22760378	      0.00000000	      0.00000000
     18.96142857	     -3.41383716	     -4.42556909	     -2.23795745	      1.10786677	      0.93495924	      0.39215582	     35.46827191	     -4.82196742	     -8.75156480	     45.50530905	     45.50530905	      0.69450623	    -10.69950808	      1.77256515	      4.68291741	     -3.19716716	    -13.01103680	     14.22112753	     14.22112753	     14.60903183	     -7.56236221	     -3.43108999	    -10.29684785	      7.55186116	      1.63751989	     -8.83112698	    -11.46056858	    -12.24054721	     19.34184266	     47.34797341	      0.00000000	      0.00000000	     25.94628873	    -16.04812167	     -3.19258869	     60.70622035	     47.28486492	      0.00000000	      0.00000000
     18.97271429	     -3.64626211	     -4.03395763	     -2.44593367	      1.10717773	      0.93363392	      0.39241783	     35.54622062	     -4.82955130	     -9.10574628	     41.68756928	     41.68756928	      0.53749766	     -9.84199788	      2.20072938	      4.12699268	     -2.73371641	    -13.36655811	     13.85700919	     13.85700919	     14.95504677	     -7.28042279	     -3.68425593	    -10.02557004	      7.07594563	      1.36171742	    -10.37389293	    -11.46439760	    -12.33363255	     18.89405033	     47.36201006	      0.00000000	      0.00000000	     27.23987300	    -16.73222150	     -3.52824262	     61.82967003	     47.33576738	      0.00000000	      0.00000000
     18.98400000	     -3.44128906	     -4.07101887	     -2.67598788	      1.10731445	      0.93317763	      0.39288291	     34.50100158	     -4.44311752	    -10.09993372	     37.03219709	     37.03219709	     -0.32732968	     -8.53129182	      0.00688521	      2.59600636	     -2.70757218	    -14.30814963	     12.67799221	     12.67799221	     15.01912992	     -5.77780189	     -4.81460902	    -10.45665426	      7.09211460	      1.35695018	    -12.36532971	    -11.51771771	    -13.33367029	     19.77409931	     47.41758236	      0.00000000	      0.00000000	     27.03954375	    -17.14077290	     -4.39638260	     67.03526042	     47.48030574	      0.00000000	      0.00000000
     18.99528571	     -3.45602954	     -3.86426215	     -2.88046463	      1.10739667	      0.93207533	      0.39337466	     33.78861500	     -4.21193475	    -10.87765308	     32.73982642	     32.73982642	     -0.33920788	     -6.95273218	      0.44894815	      1.49776780	     -2.37650810	    -14.73101253	     11.83118321	     11.83118321	     15.33295899	     -5.09251108	     -5.05756581	    -10.41085310	      6.84229809	      1.48105480	    -14.01645284	    -11.53612985	    -13.53696125	     19.51471362	     47.43361596	      0.00000000	      0.00000000	     28.05635757	    -17.33879499	     -4.68149162	     68.74691787	     47.53636422	      0.00000000	      0.00000000
     19.00657143	     -3.57536264	     -3.72649312	     -3.05769791	      1.10764400	      0.93063081	      0.39407003	     33.04414737	     -3.80174400	    -11.60709523	     28.47621329	     28.47621329	     -0.33761896	     -5.54495638	      1.25649723	      0.62118129	     -2.15471876	    -15.01170520	     11.20955569	     11.20955569	     15.67984281	     -4.66672244	     -5.25582599	    -10.15698727	      6.65886858	      1.40061550	    -15.49016271	    -11.56815208	    -13.67745480	     19.29582120	     47.44140463	      0.00000000	      0.00000000	     28.94328510	    -17.64927711	     -4.90414891	     70.04335759	     47.57999027	      0.00000000	      0.00000000
     19.01785714	     -3.37034970	     -3.44542550	     -3.26185840	      1.10836601	      0.92930658	      0.39479448	     32.01616691	     -3.61760736	    -12.51726384	     24.76833560	     24.76833560	      0.10980440	     -3.44692332	      2.44249499	     -0.78048856	     -1.73593004	    -15.62065059	     10.32434363	     10.32434363	     16.02814883	     -3.67269801	     -5.61153906	    -10.35072834	      6.30037028	      1.56104229	    -17.26357747	    -11.53800681	    -14.06805106	     19.81920990	     47.43339248	      0.00000000	      0.00000000	     29.52303080	    -17.88537455	     -5.19735322	     72.76962024	     47.65516505	      0.00000000	      0.00000000
     19.02914286	     -3.38963038	     -3.32000037	     -3.37686968	      1.10913067	      0.92755203	      0.39571722	     31.12360923	     -3.16228740	    -13.20882516	     21.27451947	     21.27451947	      0.35271203	     -2.08495927	      3.69841754	     -1.72601416	     -1.54534695	    -15.81871515	      9.84065629	      9.84065629	     16.46359089	     -3.26962508	     -5.81863602	    -10.14580117	      6.13366856	      1.48368735	    -18.70023137	    -11.58566152	    -14.27976917	     19.90554004	     47.43191298	      0.00000000	      0.00000000	     30.10426038	    -18.13494564	     -5.39136814	     74.27093706	     47.69983845	      0.00000000	      0.00000000
     19.04042857	     -3.28270412	     -3.14166722	     -3.51009984	      1.11014091	      0.92576029	      0.39675560	     30.25272620	     -2.83204182	    -13.93840365	     18.59462186	     18.59462186	      0.92818706	     -0.54302734	      5.26055728	     -2.84328922	     -1.29295675	    -16.11805694	      9.32291019	      9.32291019	     16.92821367	     -2.69323889	     -5.99061704	    -10.11957185	      5.86943116	      1.54955438	    -20.13990060	    -11.53738155	    -14.57196397	     20.26964219	     47.42280073	      0.00000000	      0.00000000	     30.58035269	    -18.32075766	     -5.57863163	     76.33442870	     47.75714662	      0.00000000	      0.00000000
     19.05171429	     -3.31098295	     -2.93712274	     -3.61102513	      1.11110547	      0.92368050	      0.39789152	     29.82591762	     -2.63547333	    -14.61557337	     17.00708424	     17.00708424	      2.30668538	      0.82120526	      8.94223520	     -3.61967355	     -1.10558111	    -16.54096238	      9.19626580	      9.19626580	     17.63744475	     -1.92811658	     -5.87721755	     -9.97593777	      5.59929905	      1.18998386	    -21.58572545	    -11.51211623	    -15.33614936	     22.01127911	     47.37536805	      0.00000000	      0.00000000	     30.32011232	    -18.91448816	     -6.04730845	     79.41321241	     47.86001142	      0.00000000	      0.00000000
